<?xml version="1.0" standalone="no"?>
<!DOCTYPE svg PUBLIC "-//W3C//DTD SVG 20010904//EN"
 "http://www.w3.org/TR/2001/REC-SVG-20010904/DTD/svg10.dtd">
<svg version="1.0" xmlns="http://www.w3.org/2000/svg"
 width="125.000000pt" height="102.000000pt" viewBox="0 0 125.000000 102.000000"
 preserveAspectRatio="xMidYMid meet">

<g transform="translate(0.000000,102.000000) scale(0.100000,-0.100000)"
fill="#000000" stroke="none">
<path d="M1005 821 c-11 -5 -79 -45 -152 -89 l-132 -80 -187 40 c-104 21 -197
38 -208 36 -45 -7 -19 -28 114 -91 77 -36 140 -70 140 -74 -1 -10 -109 -76
-125 -76 -7 0 -38 10 -69 23 -42 17 -62 20 -78 13 -21 -9 -20 -11 21 -56 24
-26 41 -53 38 -61 -3 -8 4 -18 19 -25 18 -8 24 -18 24 -41 0 -38 12 -32 46 22
21 33 42 47 121 84 68 32 98 41 103 33 4 -6 11 -47 14 -90 4 -44 11 -79 15
-79 26 0 44 37 74 144 l32 120 115 72 c135 85 190 132 190 162 0 20 -5 22 -47
21 -27 0 -57 -4 -68 -8z"/>
<path d="M309 314 c-36 -38 -203 -154 -221 -154 -6 0 -9 -3 -5 -6 19 -19 277
155 277 187 0 17 -16 9 -51 -27z"/>
</g>
</svg>
